# xmcd
#
# Track frame offsets:
#	150
#	24475
#	45600
#	72877
#	94230
#	114415
#	151340
#	213417
#	234536
#	250359
#	259411
#	286239
#
# Disc length: 4365
#
# Revision: 1
# Processed by: cddbd v1.5.1PL0 Copyright (c) Steve Scherf et al.
# Submitted via: CDex 1.50Beta5
# Normalized: r0:DSETVAR1,TDELIM( - )
#
DISCID=a8110b0c
DTITLE=Various Artist - Nextage Vol.4
DYEAR=2004
DGENRE=New Age
TTITLE0=Maysia - Hooked On Your Love
TTITLE1=Paul Taylor - Looking Glass
TTITLE2=Cybertribe - Crusing Bridges
TTITLE3=Patrick O'hearn - Beyond The Moment
TTITLE4=Vincenzo Zitello Trio - Respiro Segreto
TTITLE5=Aladins - The Lamp
TTITLE6=Code Indigo - Uforia
TTITLE7=Kenny Pore - Touching Hearts
TTITLE8=Don Harris - Rough Crossing
TTITLE9=Roberto Sequoia - Essence Of Life
TTITLE10=Roberto Sequoia - Song Of The Moon
TTITLE11=Traccia dati - 
EXTD=YEAR: 2004
EXTT0=
EXTT1=
EXTT2=
EXTT3=
EXTT4=
EXTT5=
EXTT6=
EXTT7=
EXTT8=
EXTT9=
EXTT10=
EXTT11=
PLAYORDER=
